<svg width="328" height="132" viewBox="0 0 328 132" fill="none" xmlns="http://www.w3.org/2000/svg">
<path d="M3.644 109.495H23.138L19.494 130.082H0L3.644 109.495Z" fill="#4C566A"/>
<path d="M101.475 122.066C101.159 122.476 100.792 122.843 100.382 123.159C93.6451 129.718 87.4501 131.904 76.5191 131.904C55.3831 131.9 45.1831 122.795 45.1831 104.029C45.2688 98.7081 45.8176 93.4047 46.8231 88.179L49.1911 74.515C54.1101 46.822 65.2241 35.709 87.9971 35.709C95.8311 35.709 102.025 37.167 107.491 40.082C108.402 40.629 108.402 40.629 110.953 42.997L112.411 44.09L120.244 0H138.827L115.872 130.082H101.483L101.475 122.066ZM65.0381 89.454C64.3591 92.9367 63.9933 96.4731 63.9451 100.021C63.9451 111.321 69.2281 116.964 80.1601 116.964C93.4601 116.964 101.112 108.948 104.027 92.186L106.942 75.425C107.459 72.6586 107.763 69.8568 107.853 67.044C107.853 56.295 102.023 50.644 91.0921 50.644C77.7921 50.644 70.5051 59.025 67.0431 78.154L65.0381 89.454Z" fill="#4C566A"/>
<path d="M152.309 74.333C157.046 47.009 169.617 35.709 195.488 35.709C219.537 35.709 231.015 45.001 231.015 64.495C230.903 69.4438 230.416 74.377 229.557 79.252L227.006 93.28C222.269 120.608 209.516 131.904 183.828 131.904C159.779 131.904 148.301 122.43 148.301 102.936C148.397 98.1068 148.885 93.2934 149.759 88.543L152.309 74.333ZM211.156 77.977C211.827 74.4319 212.193 70.8357 212.249 67.228C212.249 56.115 206.419 50.649 194.759 50.649C180.731 50.649 173.625 58.665 170.159 77.977L168.159 89.637C167.48 93.1196 167.114 96.6561 167.066 100.204C167.066 111.504 172.714 116.965 184.556 116.965C198.584 116.965 205.69 108.949 209.156 89.637L211.156 77.977Z" fill="#4C566A"/>
<path d="M317.55 117.693C309.169 127.531 298.967 131.904 284.21 131.904C262.348 131.904 250.51 120.973 250.51 100.932C250.667 95.4333 251.215 89.9528 252.15 84.532L253.243 77.791C255.976 62.669 259.255 54.653 265.632 47.73C272.915 39.717 282.752 35.709 295.505 35.709C312.084 35.709 322.469 41.721 327.205 53.928L312.083 59.94C308.257 53.017 304.067 50.648 295.868 50.648C282.568 50.648 275.099 59.575 271.455 79.798L269.998 88.361C269.423 91.8547 269.119 95.3875 269.087 98.928C269.087 111.135 274.553 116.965 286.213 116.965C294.413 116.965 300.059 114.232 305.525 107.856L317.55 117.693Z" fill="#4C566A"/>
</svg>
