<svg width="60" height="60" viewBox="0 0 60 60" fill="none" xmlns="http://www.w3.org/2000/svg">
<rect width="60" height="60" rx="30" fill="#ECEFF4"/>
<path d="M41.4475 17.0485L35.9749 23.1131C35.2228 23.9466 35.3394 25.1895 36.2354 25.8892L36.2362 25.8898C37.1322 26.5894 38.4683 26.4809 39.2205 25.6474L44.693 19.5829C45.4452 18.7493 45.3285 17.5065 44.4325 16.8068L44.4317 16.8062C43.5357 16.1065 42.1996 16.215 41.4475 17.0485Z" fill="#5E81AC"/>
<path d="M32.595 28.5368L33.449 25.8391C33.486 25.722 33.5539 25.6153 33.6464 25.5287C33.7389 25.442 33.853 25.3782 33.9787 25.3429C34.1043 25.3076 34.2375 25.3021 34.366 25.3267C34.4946 25.3512 34.6145 25.4052 34.715 25.4838L36.564 26.9275C36.6646 27.0059 36.7426 27.1064 36.7909 27.2198C36.8393 27.3333 36.8566 27.4562 36.8411 27.5774C36.8256 27.6986 36.7779 27.8143 36.7023 27.9141C36.6267 28.0139 36.5255 28.0946 36.408 28.1489L33.708 29.3991C33.5706 29.4633 33.416 29.4888 33.2632 29.4724C33.1104 29.4561 32.9661 29.3986 32.8479 29.3071C32.7298 29.2155 32.6429 29.0939 32.5979 28.957C32.553 28.8202 32.552 28.6741 32.595 28.5368Z" fill="#5E81AC"/>
<path d="M39.81 41.4586H21.79C20.9527 41.472 20.1438 41.176 19.5409 40.6354C18.938 40.0947 18.5903 39.3537 18.574 38.5749V23.0456C18.59 22.2666 18.9377 21.5255 19.5406 20.9848C20.1436 20.4441 20.9526 20.1481 21.79 20.1618L33.59 20.1702C33.9045 20.1702 34.2062 20.2865 34.4286 20.4934C34.651 20.7003 34.776 20.9809 34.776 21.2735C34.776 21.5661 34.651 21.8467 34.4286 22.0536C34.2062 22.2605 33.9045 22.3767 33.59 22.3767L21.79 22.3684C21.5825 22.3552 21.3778 22.4187 21.2202 22.5449C21.0627 22.6711 20.9648 22.8499 20.948 23.0427V38.5776C20.9651 38.7707 21.0633 38.9497 21.2212 39.0759C21.3792 39.2022 21.5842 39.2654 21.792 39.2521H39.812C40.0197 39.2652 40.2245 39.2018 40.3824 39.0757C40.5403 38.9495 40.6386 38.7706 40.656 38.5776L40.665 26.5014C40.665 26.2088 40.7899 25.9282 41.0123 25.7213C41.2347 25.5144 41.5364 25.3981 41.851 25.3981C42.1655 25.3981 42.4672 25.5144 42.6896 25.7213C42.912 25.9282 43.037 26.2088 43.037 26.5014L43.024 38.5804C43.0066 39.3581 42.6586 40.0978 42.0562 40.6372C41.4538 41.1767 40.646 41.472 39.81 41.4586Z" fill="#5E81AC"/>
</svg>
