<svg width="60" height="60" viewBox="0 0 60 60" fill="none" xmlns="http://www.w3.org/2000/svg">
<rect width="60" height="60" rx="30" fill="#ECEFF4"/>
<path d="M38.8571 18.7163C39.2018 18.7163 39.5325 18.8437 39.7763 19.0705C40.0201 19.2973 40.1571 19.6049 40.1571 19.9256V39.3191C40.1571 39.6398 40.0201 39.9474 39.7763 40.1742C39.5325 40.401 39.2018 40.5284 38.8571 40.5284H21.1741C20.8293 40.5284 20.4986 40.401 20.2548 40.1742C20.011 39.9474 19.8741 39.6398 19.8741 39.3191V19.9219C19.8741 19.6011 20.011 19.2936 20.2548 19.0668C20.4986 18.84 20.8293 18.7126 21.1741 18.7126H38.8571M38.8571 16.813H21.1741C20.289 16.813 19.4401 17.1401 18.8141 17.7222C18.1881 18.3043 17.8363 19.0939 17.8361 19.9172V39.3191C17.8361 40.1426 18.1878 40.9324 18.8138 41.5147C19.4397 42.0971 20.2888 42.4242 21.1741 42.4242H38.8571C39.7423 42.4242 40.5914 42.0971 41.2174 41.5147C41.8434 40.9324 42.1951 40.1426 42.1951 39.3191V19.9219C42.1951 19.0983 41.8434 18.3085 41.2174 17.7262C40.5914 17.1439 39.7423 16.8168 38.8571 16.8168V16.813Z" fill="#5E81AC"/>
<path d="M37.3229 22.5033H22.7079C22.5748 22.5033 22.4669 22.6037 22.4669 22.7275C22.4669 22.8513 22.5748 22.9517 22.7079 22.9517H37.3229C37.456 22.9517 37.5639 22.8513 37.5639 22.7275C37.5639 22.6037 37.456 22.5033 37.3229 22.5033Z" fill="black"/>
<path d="M37.474 21.7684H22.558C22.3243 21.7684 22.1002 21.8547 21.935 22.0084C21.7698 22.1621 21.677 22.3706 21.677 22.5879V22.867C21.677 23.0844 21.7698 23.2928 21.935 23.4465C22.1002 23.6002 22.3243 23.6865 22.558 23.6865H37.474C37.7077 23.6865 37.9317 23.6002 38.0969 23.4465C38.2621 23.2928 38.355 23.0844 38.355 22.867V22.5879C38.355 22.3706 38.2621 22.1621 38.0969 22.0084C37.9317 21.8547 37.7077 21.7684 37.474 21.7684Z" fill="#5E81AC"/>
<path d="M37.324 26.8065H22.708C22.5518 26.8065 22.425 26.9244 22.425 27.0698V27.0707C22.425 27.2161 22.5518 27.334 22.708 27.334H37.324C37.4803 27.334 37.607 27.2161 37.607 27.0707V27.0698C37.607 26.9244 37.4803 26.8065 37.324 26.8065Z" fill="black"/>
<path d="M37.474 26.1107H22.558C22.3243 26.1107 22.1002 26.1971 21.935 26.3508C21.7698 26.5045 21.677 26.7129 21.677 26.9302V27.2094C21.677 27.4267 21.7698 27.6351 21.935 27.7888C22.1002 27.9425 22.3243 28.0289 22.558 28.0289H37.474C37.7077 28.0289 37.9317 27.9425 38.0969 27.7888C38.2621 27.6351 38.355 27.4267 38.355 27.2094V26.9302C38.355 26.7129 38.2621 26.5045 38.0969 26.3508C37.9317 26.1971 37.7077 26.1107 37.474 26.1107Z" fill="#5E81AC"/>
<path d="M31.086 31.0948H22.708C22.539 31.0948 22.402 31.2221 22.402 31.379C22.402 31.536 22.539 31.6632 22.708 31.6632H31.086C31.255 31.6632 31.392 31.536 31.392 31.379C31.392 31.2221 31.255 31.0948 31.086 31.0948Z" fill="black"/>
<path d="M31.237 30.4195H22.558C22.3243 30.4195 22.1002 30.5059 21.935 30.6595C21.7698 30.8132 21.677 31.0217 21.677 31.239V31.5181C21.677 31.7355 21.7698 31.9439 21.935 32.0976C22.1002 32.2513 22.3243 32.3376 22.558 32.3376H31.237C31.4707 32.3376 31.6947 32.2513 31.8599 32.0976C32.0251 31.9439 32.118 31.7355 32.118 31.5181V31.239C32.118 31.0217 32.0251 30.8132 31.8599 30.6595C31.6947 30.5059 31.4707 30.4195 31.237 30.4195Z" fill="#5E81AC"/>
</svg>
