<svg width="60" height="60" viewBox="0 0 60 60" fill="none" xmlns="http://www.w3.org/2000/svg">
<rect width="60" height="60" rx="30" fill="#ECEFF4"/>
<path d="M30.2281 25.7202C31.5981 25.723 32.9182 26.2462 33.9326 27.1885C34.9469 28.1309 35.583 29.4251 35.7176 30.8202C35.8522 32.2153 35.4756 33.6118 34.6609 34.7389C33.8463 35.8659 32.6516 36.6433 31.3085 36.92C29.9655 37.1968 28.5699 36.9532 27.3923 36.2367C26.2148 35.5202 25.3393 34.3817 24.9357 33.042C24.532 31.7024 24.629 30.2571 25.2078 28.9865C25.7866 27.7159 26.8059 26.7105 28.0681 26.1653C28.7516 25.8701 29.4862 25.7188 30.2281 25.7202ZM30.2281 23.6543C28.2204 23.6543 26.295 24.4704 24.8753 25.9231C23.4557 27.3758 22.6581 29.346 22.6581 31.4004C22.6581 33.4547 23.4557 35.425 24.8753 36.8776C26.295 38.3303 28.2204 39.1464 30.2281 39.1464C32.2358 39.1464 34.1612 38.3303 35.5809 36.8776C37.0005 35.425 37.7981 33.4547 37.7981 31.4004C37.7981 29.346 37.0005 27.3758 35.5809 25.9231C34.1612 24.4704 32.2358 23.6543 30.2281 23.6543Z" fill="#5E81AC"/>
<path d="M31.864 17.0441V20.0545L33.322 20.4863C34.1081 20.7195 34.8664 21.0414 35.583 21.4462L36.912 22.1962L37.985 21.0972L38.993 20.0658L41.306 22.4326L40.298 23.464L39.224 24.562L39.959 25.9219C40.3545 26.6551 40.6691 27.431 40.897 28.2354L41.319 29.7274H44.2599V33.0734H41.318L40.896 34.5653C40.6681 35.3697 40.3535 36.1457 39.958 36.8789L39.225 38.2388L40.299 39.3367L41.307 40.3682L38.994 42.735L37.986 41.7036L36.9129 40.6046L35.584 41.3567C34.8674 41.7614 34.1091 42.0833 33.323 42.3165L31.865 42.7483V45.7577H28.5939V42.7473L27.136 42.3155C26.3498 42.0823 25.5915 41.7604 24.875 41.3557L23.546 40.6056L22.473 41.7046L21.465 42.736L19.152 40.3692L20.16 39.3378L21.2339 38.2398L20.501 36.8799C20.1055 36.1467 19.7909 35.3707 19.563 34.5663L19.141 33.0744H16.199V29.7284H19.141L19.563 28.2365C19.7909 27.4321 20.1055 26.6561 20.501 25.9229L21.2339 24.563L20.16 23.464L19.152 22.4326L21.465 20.0658L22.473 21.0972L23.546 22.1962L24.875 21.4462C25.5915 21.0414 26.3498 20.7195 27.136 20.4863L28.5939 20.0545V17.0441H31.864ZM32.526 14.9782H27.932C27.5721 14.9782 27.2269 15.1244 26.9724 15.3849C26.7179 15.6453 26.575 15.9984 26.575 16.3667V18.5012C25.6445 18.7766 24.747 19.1572 23.899 19.636L22.423 18.1267C22.2969 17.9976 22.1473 17.8952 21.9826 17.8254C21.8178 17.7555 21.6413 17.7195 21.463 17.7195C21.2846 17.7195 21.1081 17.7555 20.9434 17.8254C20.7786 17.8952 20.629 17.9976 20.503 18.1267L17.255 21.4502C17.1288 21.5792 17.0287 21.7323 16.9605 21.9009C16.8922 22.0694 16.857 22.2501 16.857 22.4326C16.857 22.615 16.8922 22.7957 16.9605 22.9642C17.0287 23.1328 17.1288 23.2859 17.255 23.4149L18.7299 24.9252C18.262 25.793 17.8901 26.7114 17.621 27.6635H15.535C15.1754 27.6637 14.8307 27.81 14.5764 28.0701C14.3222 28.3303 14.1792 28.6831 14.179 29.051V33.7518C14.179 34.1201 14.3219 34.4733 14.5764 34.7337C14.8309 34.9941 15.1761 35.1404 15.5359 35.1404H17.6219C17.8911 36.0921 18.2631 37.0102 18.731 37.8776L17.256 39.3879C17.1298 39.5169 17.0297 39.67 16.9615 39.8386C16.8932 40.0071 16.858 40.1878 16.858 40.3702C16.858 40.5527 16.8932 40.7334 16.9615 40.9019C17.0297 41.0705 17.1298 41.2236 17.256 41.3526L20.504 44.6761C20.63 44.8052 20.7796 44.9076 20.9444 44.9775C21.1091 45.0473 21.2856 45.0833 21.464 45.0833C21.6423 45.0833 21.8188 45.0473 21.9836 44.9775C22.1483 44.9076 22.2979 44.8052 22.424 44.6761L23.8999 43.1668C24.748 43.6456 25.6455 44.0263 26.576 44.3016V46.4361C26.576 46.8044 26.7189 47.1576 26.9734 47.418C27.2279 47.6784 27.5731 47.8247 27.933 47.8247H32.527C32.8869 47.8247 33.232 47.6784 33.4865 47.418C33.741 47.1576 33.884 46.8044 33.884 46.4361V44.3016C34.8144 44.0262 35.7119 43.6456 36.56 43.1668L38.0359 44.6761C38.162 44.8052 38.3116 44.9076 38.4763 44.9775C38.6411 45.0473 38.8176 45.0833 38.996 45.0833C39.1743 45.0833 39.3508 45.0473 39.5155 44.9775C39.6803 44.9076 39.8299 44.8052 39.9559 44.6761L43.2039 41.3526C43.3301 41.2236 43.4302 41.0705 43.4984 40.9019C43.5667 40.7334 43.6019 40.5527 43.6019 40.3702C43.6019 40.1878 43.5667 40.0071 43.4984 39.8386C43.4302 39.67 43.3301 39.5169 43.2039 39.3879L41.729 37.8776C42.1968 37.0102 42.5688 36.0921 42.838 35.1404H44.924C45.2838 35.1404 45.629 34.9941 45.8835 34.7337C46.138 34.4733 46.281 34.1201 46.281 33.7518V29.051C46.281 28.6827 46.138 28.3295 45.8835 28.0691C45.629 27.8087 45.2838 27.6624 44.924 27.6624H42.838C42.5689 26.7104 42.1969 25.7919 41.729 24.9242L43.2039 23.4139C43.3301 23.2849 43.4302 23.1318 43.4984 22.9632C43.5667 22.7947 43.6019 22.614 43.6019 22.4315C43.6019 22.2491 43.5667 22.0684 43.4984 21.8999C43.4302 21.7313 43.3301 21.5782 43.2039 21.4492L39.9559 18.1257C39.8299 17.9966 39.6803 17.8942 39.5155 17.8243C39.3508 17.7545 39.1743 17.7185 38.996 17.7185C38.8176 17.7185 38.6411 17.7545 38.4763 17.8243C38.3116 17.8942 38.162 17.9966 38.0359 18.1257L36.56 19.635C35.7119 19.1562 34.8144 18.7755 33.884 18.5002V16.3657C33.8838 16.1833 33.8486 16.0026 33.7802 15.8342C33.7118 15.6657 33.6117 15.5126 33.4854 15.3838C33.3592 15.2549 33.2095 15.1528 33.0446 15.0832C32.8798 15.0136 32.7032 14.9779 32.5249 14.9782H32.526Z" fill="#5E81AC"/>
</svg>
